<svg width="83" height="83" viewBox="0 0 83 83" fill="none" xmlns="http://www.w3.org/2000/svg">
<path fill-rule="evenodd" clip-rule="evenodd" d="M30.9999 1.52902C24.5499 3.31802 14.6409 9.14202 14.1769 11.416C13.6959 13.772 15.5359 13.349 20.0809 10.056C28.8439 3.70802 42.9889 1.74802 53.7619 5.39002C64.3579 8.97202 74.0789 18.737 77.6329 29.368C80.0979 36.743 79.8449 48.003 77.0499 55.285C74.2109 62.684 65.6949 72.024 58.6429 75.474C35.3879 86.851 8.65794 73.25 3.93794 47.638C2.40394 39.318 4.16294 29.773 8.58094 22.436C11.9869 16.779 12.8149 14 11.0939 14C9.62294 14 4.23794 22.788 2.29994 28.351C-0.210065 35.555 -0.031065 48.784 2.66993 55.594C7.18293 66.977 15.9069 75.86 26.7479 80.11C34.5729 83.177 48.2149 83.288 55.5939 80.343C67.0039 75.79 75.8629 67.085 80.1099 56.252C83.1769 48.427 83.2879 34.785 80.3429 27.406C75.7659 15.935 66.9589 7.00702 56.2519 2.98402C48.7419 0.163021 38.1289 -0.448979 30.9999 1.52902ZM32.7759 8.41702C10.7799 14.76 0.988935 38.056 11.8089 58.304C15.0699 64.406 20.7209 69.516 27.8799 72.837C32.4349 74.95 35.0199 75.449 41.5209 75.472C48.6119 75.497 50.3219 75.116 56.2709 72.187C59.9719 70.365 62.9999 68.228 62.9999 67.437C62.9999 65.473 62.6579 65.551 55.1999 69.222C42.8369 75.308 29.3539 73.019 19.7049 63.195C13.2839 56.658 10.6119 50.273 10.6249 41.5C10.6379 32.585 13.4229 25.974 19.8049 19.705C26.3329 13.293 32.7249 10.615 41.4999 10.615C50.2749 10.615 56.6669 13.293 63.1949 19.705C72.6159 28.959 75.2369 42.708 69.7319 54C68.2579 57.025 66.4929 60.266 65.8109 61.202C64.3929 63.147 65.2279 64.51 67.3409 63.699C69.6589 62.81 74.8059 51.398 75.5409 45.521C76.8049 35.398 72.2589 23.177 64.6819 16.332C56.3019 8.76102 43.0149 5.46502 32.7759 8.41702ZM28.5359 27.96C26.2239 30.515 27.2129 34.684 30.4869 36.176C35.6889 38.546 40.4739 31.617 36.4289 27.571C34.2779 25.421 30.6729 25.598 28.5359 27.96ZM40.0219 40.478C29.3359 51.186 26.8179 54.218 27.7999 55.2C28.7819 56.182 31.8139 53.664 42.5219 42.978C55.1039 30.422 56.8539 28.118 54.4269 27.309C53.9059 27.135 47.4229 33.061 40.0219 40.478ZM34.7499 30.749C35.2969 32.392 32.1639 33.564 30.8199 32.22C30.2449 31.645 30.0919 30.66 30.4799 30.032C31.3639 28.602 34.1939 29.078 34.7499 30.749ZM47.7499 47.08C45.5539 48.359 45.4479 53.305 47.5709 55.429C50.9679 58.825 56.9999 56.312 56.9999 51.5C56.9999 46.944 52.0469 44.577 47.7499 47.08ZM53.8119 51.265C54.2099 53.331 51.3239 54.724 49.7999 53.2C48.2759 51.676 49.6689 48.79 51.7349 49.188C52.6929 49.372 53.6279 50.307 53.8119 51.265Z" fill="url(#paint0_linear_71_33)"/>
<defs>
<linearGradient id="paint0_linear_71_33" x1="41.5041" y1="0.373901" x2="41.5041" y2="82.4829" gradientUnits="userSpaceOnUse">
<stop stop-color="#FAA92B"/>
<stop offset="1" stop-color="#E13A35"/>
</linearGradient>
</defs>
</svg>
